<?xml version="1.0" encoding="UTF-8" standalone="no"?>
<svg
   xmlns:dc="http://purl.org/dc/elements/1.1/"
   xmlns:cc="http://creativecommons.org/ns#"
   xmlns:rdf="http://www.w3.org/1999/02/22-rdf-syntax-ns#"
   xmlns:svg="http://www.w3.org/2000/svg"
   xmlns="http://www.w3.org/2000/svg"
   viewBox="0 0 334.92001 290.39999"
   height="290.39999"
   width="334.92001"
   xml:space="preserve"
   id="svg2"
   version="1.1"><metadata
     id="metadata8"><rdf:RDF><cc:Work
         rdf:about=""><dc:format>image/svg+xml</dc:format><dc:type
           rdf:resource="http://purl.org/dc/dcmitype/StillImage" /></cc:Work></rdf:RDF></metadata><defs
     id="defs6" /><g
     transform="matrix(1.3333333,0,0,-1.3333333,0,290.4)"
     id="g10"><g
       transform="scale(0.1)"
       id="g12"><path
         id="path14"
         style="fill:#5e42f5;fill-opacity:1;fill-rule:nonzero;stroke:none"
         d="m 1655.94,717.832 -200,115.469 263.4,152.07 263.39,-456.223 z m -500,173.199 L 529.148,529.148 1255.94,1788 1619.34,1158.58 Z M 2510.48,15.0586 1892.54,1085.37 1264.6,2173 c -1.92,3.33 -5.29,5 -8.66,5 -3.37,0 -6.73,-1.67 -8.66,-5 L 1.39844,15.0586 C -2.75,7.87891 2.98047,0 10.0195,0 c 1.6446,0 3.3594,0.429688 5.0391,1.39844 L 1255.94,717.832 2496.82,1.39844 C 2498.5,0.429688 2500.22,0 2501.86,0 c 7.04,0 12.77,7.87891 8.62,15.0586" /></g></g></svg>